# xmcd
#
# Track frame offsets:
#	150
#	13041
#	34749
#	47915
#	63065
#	86336
#	105790
#	123449
#	148021
#	177882
#	201466
#	219065
#	232774
#
# Disc length: 3338 seconds
#
# Revision: 0
# Processed by: cddbd v1.5.1PL2 Copyright (c) Steve Scherf et al.
# Submitted via: audiograbber 1.83.01
#
DISCID=a00d080d
DTITLE=Roger "Hurricane" Wilson - The Business Of The Blues
DYEAR=1998
DGENRE=Blues
TTITLE0=It Don't Get No Better N' This
TTITLE1=Boom Boom
TTITLE2=The Business Of The Blues
TTITLE3=San Ho Zay
TTITLE4=Trouble In Mind
TTITLE5=Just One More White Boy Singing The Blues
TTITLE6=Sugar Coated Love
TTITLE7=Honey Bee
TTITLE8=I Know You Rider
TTITLE9=Back Porch Blues
TTITLE10=I Never Got To Say Goodbye To Willie Guy
TTITLE11=Mean Old World
TTITLE12=Further On Up The Road
EXTD=
EXTT0=
EXTT1=
EXTT2=
EXTT3=
EXTT4=
EXTT5=
EXTT6=
EXTT7=
EXTT8=
EXTT9=
EXTT10=
EXTT11=
EXTT12=
PLAYORDER=
